<svg xmlns="http://www.w3.org/2000/svg" height="20" width="20"><path d="M10 13.292q1.375 0 2.333-.959.959-.958.959-2.333 0-1.375-.959-2.333-.958-.959-2.333-.959-1.375 0-2.333.959-.959.958-.959 2.333 0 1.375.959 2.333.958.959 2.333.959Zm0-1.25q-.854 0-1.448-.594T7.958 10q0-.854.594-1.448T10 7.958q.854 0 1.448.594T12.042 10q0 .854-.594 1.448T10 12.042Zm0 3.75q-2.917 0-5.302-1.584Q2.312 12.625 1.146 10q1.166-2.625 3.542-4.208Q7.062 4.208 10 4.208q2.917 0 5.302 1.584Q17.688 7.375 18.854 10q-1.166 2.625-3.542 4.208-2.374 1.584-5.312 1.584ZM10 10Zm0 4.583q2.375 0 4.406-1.229 2.032-1.229 3.115-3.354-1.083-2.125-3.115-3.354Q12.375 5.417 10 5.417q-2.375 0-4.406 1.229Q3.562 7.875 2.479 10q1.083 2.125 3.115 3.354Q7.625 14.583 10 14.583Z" fill="#999999"/></svg>